<?xml version="1.0" encoding="UTF-8" standalone="no"?>
<svg
   xmlns:dc="http://purl.org/dc/elements/1.1/"
   xmlns:cc="http://creativecommons.org/ns#"
   xmlns:rdf="http://www.w3.org/1999/02/22-rdf-syntax-ns#"
   xmlns:svg="http://www.w3.org/2000/svg"
   xmlns="http://www.w3.org/2000/svg"
   id="svg8"
   version="1.1"
   viewBox="0 0 61.912522 15.875003"
   height="60"
   width="234">
  <defs
     id="defs2">
    <clipPath
       id="clip0">
      <rect
         style="fill:#ffffff"
         y="0"
         x="0"
         width="341"
         height="32"
         id="rect46" />
    </clipPath>
  </defs>
  <metadata
     id="metadata5">
    <rdf:RDF>
      <cc:Work
         rdf:about="">
        <dc:format>image/svg+xml</dc:format>
        <dc:type
           rdf:resource="http://purl.org/dc/dcmitype/StillImage" />
        <dc:title></dc:title>
      </cc:Work>
    </rdf:RDF>
  </metadata>
  <g
     id="layer5">
    <rect
       ry="0.78743261"
       y="0.30140066"
       x="0.30140045"
       height="15.272199"
       width="61.3097"
       id="rect54"
       style="fill:#2b2b2b;fill-opacity:1;stroke:#3c3c3c;stroke-width:0.60280091;stroke-miterlimit:4;stroke-dasharray:none;stroke-opacity:1" />
    <g
       transform="matrix(0.18190104,0,0,0.18190104,-59.073412,14.489449)"
       id="g4746">
      <g
         transform="matrix(0.45164229,0,0,0.45164229,336.39213,-68.028656)"
         id="g4706">
        <path
           style="fill:#5da545;fill-rule:evenodd"
           d="M 159.07,89.29 A 70.94,70.94 0 1 0 20,63.52 H 32 A 58.78,58.78 0 0 1 145.23,49.93 l -11.66,3.12 a 46.54,46.54 0 0 0 -29,-26.52 l -2.15,12.13 a 34.31,34.31 0 0 1 2.77,63.26 l 3.19,11.9 a 46.52,46.52 0 0 0 28.33,-49 l 11.62,-3.1 A 57.94,57.94 0 0 1 147.27,85 Z"
           transform="translate(-19.79)"
           id="path4702" />
        <path
           style="fill:#5da545"
           d="M 108.92,139.3 A 70.93,70.93 0 0 1 19.79,76 h 12 a 59.48,59.48 0 0 0 1.78,9.91 58.73,58.73 0 0 0 3.63,9.91 l 10.68,-6.41 a 46.58,46.58 0 0 1 44.72,-65 L 90.43,36.54 A 34.38,34.38 0 0 0 57.36,79.75 C 57.67,80.88 58,82 58.43,83 L 72.09,74.81 68,63.93 80.9,50.68 97.21,47.17 101.9,53 l -7.52,7.61 -6.55,2.06 -4.69,4.82 2.3,6.38 c 0,0 4.64,4.94 4.65,4.94 l 6.57,-1.74 4.67,-5.13 10.2,-3.24 3,6.84 L 104.05,88.43 86.41,94 78.49,85.19 64.7,93.48 a 34.44,34.44 0 0 0 28.72,11.59 L 96.61,117 A 46.6,46.6 0 0 1 54.13,99.83 l -10.64,6.38 a 58.81,58.81 0 0 0 99.6,-9.77 l 11.8,4.29 a 70.77,70.77 0 0 1 -45.97,38.57 z"
           transform="translate(-19.79)"
           id="path4704" />
      </g>
    </g>
    <g
       transform="matrix(0.07327774,0,0,0.07327774,2.9158317,5.3472218)"
       id="g4724">
      <path
         style="fill:#ffffff"
         d="m 303,52.44 q 7.51,7.45 7.52,22.37 v 39 h -15.98 v -37 q 0,-8.92 -4,-13.45 -4,-4.53 -11.35,-4.52 -8,0 -12.87,5.29 -4.87,5.29 -4.85,15.1 v 34.55 h -15.88 v -37 q 0,-8.92 -4,-13.45 -4,-4.53 -11.35,-4.52 -8.16,0 -12.94,5.22 -4.78,5.22 -4.78,15.17 v 34.55 h -15.88 v -68 h 15.17 v 8.66 a 24.78,24.78 0 0 1 9.56,-7 32.51,32.51 0 0 1 12.74,-2.41 30.83,30.83 0 0 1 13.58,2.87 22,22 0 0 1 9.37,8.48 28.31,28.31 0 0 1 10.83,-8.35 35.16,35.16 0 0 1 14.66,-3 q 12.88,0 20.45,7.44 z"
         transform="translate(-19.79)"
         id="path4708" />
      <path
         style="fill:#ffffff"
         d="m 343.49,110.25 a 32.53,32.53 0 0 1 -12.94,-12.43 35,35 0 0 1 -4.66,-18 34.68,34.68 0 0 1 4.66,-18 32.66,32.66 0 0 1 12.94,-12.37 41.33,41.33 0 0 1 37.35,0 32.7,32.7 0 0 1 12.93,12.37 34.68,34.68 0 0 1 4.66,18 35,35 0 0 1 -4.66,18 32.57,32.57 0 0 1 -12.93,12.43 41.33,41.33 0 0 1 -37.35,0 z m 33.14,-15 q 5.73,-5.86 5.74,-15.43 0.01,-9.57 -5.74,-15.42 A 19.46,19.46 0 0 0 362.1,58.53 19.25,19.25 0 0 0 347.63,64.4 Q 342,70.22 342,79.78 q 0,9.56 5.67,15.43 a 19.25,19.25 0 0 0 14.47,5.86 19.46,19.46 0 0 0 14.49,-5.86 z"
         transform="translate(-19.79)"
         id="path4710" />
      <path
         style="fill:#ffffff"
         d="m 480.39,19.23 v 94.59 H 465.1 V 105 a 24.75,24.75 0 0 1 -9.76,7.27 33,33 0 0 1 -12.81,2.42 35.84,35.84 0 0 1 -17.65,-4.33 31.06,31.06 0 0 1 -12.3,-12.31 36.71,36.71 0 0 1 -4.47,-18.29 36.4,36.4 0 0 1 4.47,-18.23 31.27,31.27 0 0 1 12.3,-12.24 35.94,35.94 0 0 1 17.65,-4.29 32.36,32.36 0 0 1 12.37,2.3 24.89,24.89 0 0 1 9.56,6.88 V 19.23 Z M 454.77,98.46 A 18.92,18.92 0 0 0 462,91 22.87,22.87 0 0 0 464.67,79.78 22.87,22.87 0 0 0 462,68.56 a 18.89,18.89 0 0 0 -7.27,-7.45 21.65,21.65 0 0 0 -20.65,0 18.89,18.89 0 0 0 -7.27,7.45 22.87,22.87 0 0 0 -2.67,11.22 22.87,22.87 0 0 0 2.71,11.22 18.92,18.92 0 0 0 7.27,7.46 21.73,21.73 0 0 0 20.65,0 z"
         transform="translate(-19.79)"
         id="path4712" />
      <path
         style="fill:#ffffff"
         d="m 540.69,45 v 15.15 a 20.64,20.64 0 0 0 -3.7,-0.38 q -9.3,0 -14.53,5.42 -5.23,5.42 -5.23,15.61 v 33 H 501.3 V 45.75 h 15.17 v 9.94 Q 523.35,45 540.69,45 Z"
         transform="translate(-19.79)"
         id="path4714" />
      <path
         style="fill:#ffffff"
         d="m 555,31.79 a 8.94,8.94 0 0 1 -3,-6.79 8.94,8.94 0 0 1 3,-6.85 10.2,10.2 0 0 1 7.26,-2.74 10.55,10.55 0 0 1 7.24,2.59 8.43,8.43 0 0 1 2.93,6.56 9.58,9.58 0 0 1 -2.87,7.08 9.92,9.92 0 0 1 -7.33,2.87 10.2,10.2 0 0 1 -7.23,-2.72 z m -0.77,14 h 15.94 v 68.07 H 554.2 Z"
         transform="translate(-19.79)"
         id="path4716" />
      <path
         style="fill:#ffffff"
         d="m 650.32,52.5 q 7.77,7.53 7.77,22.31 v 39 h -15.93 v -37 q 0,-8.92 -4.21,-13.45 -4.21,-4.53 -12,-4.52 -8.81,0 -13.9,5.29 -5.09,5.29 -5.05,15.27 v 34.42 H 591 V 45.75 h 15.17 v 8.79 a 25,25 0 0 1 9.94,-7.14 35.91,35.91 0 0 1 13.56,-2.4 q 12.87,0 20.65,7.5 z"
         transform="translate(-19.79)"
         id="path4718" />
      <path
         style="fill:#ffffff"
         d="m 716.6,110.12 a 18.65,18.65 0 0 1 -6.82,3.44 30.46,30.46 0 0 1 -8.47,1.15 q -11.22,0 -17.34,-5.86 -6.12,-5.86 -6.12,-17.09 V 30.7 h 15.94 V 46.26 H 712 V 59 h -18.21 v 32.38 c 0,3.32 0.82,5.85 2.48,7.59 a 9.14,9.14 0 0 0 7,2.61 14,14 0 0 0 8.92,-2.8 z"
         transform="translate(-19.79)"
         id="path4720" />
      <path
         style="fill:#ffffff"
         d="m 789,52.5 q 7.77,7.53 7.78,22.31 v 39 h -15.93 v -37 q 0,-8.92 -4.21,-13.45 -4.21,-4.53 -12,-4.52 -8.79,0 -13.89,5.29 -5.1,5.29 -5.1,15.23 v 34.42 H 729.73 V 19.23 h 15.94 v 34.42 a 25.82,25.82 0 0 1 9.75,-6.44 36,36 0 0 1 12.94,-2.21 q 12.87,0 20.64,7.5 z"
         transform="translate(-19.79)"
         id="path4722" />
    </g>
  </g>
  <g
     style="display:inline"
     transform="translate(0,-281.12493)"
     id="layer2" />
  <g
     style="display:inline"
     transform="translate(0,-17.991667)"
     id="layer3">
    <g
       id="flowRoot73"
       style="font-style:normal;font-variant:normal;font-weight:normal;font-stretch:normal;font-size:40px;line-height:1.25;font-family:'Noto Sans';-inkscape-font-specification:'Noto Sans';letter-spacing:0px;word-spacing:0px;fill:#000000;fill-opacity:1;stroke:none"
       transform="matrix(0.09113317,0,0,0.08731273,-1.3399134,18.684742)"
       aria-label="AVAILABLE ON">
      <path
         id="path229"
         style="font-style:normal;font-variant:normal;font-weight:normal;font-stretch:normal;font-family:'Noto Sans';-inkscape-font-specification:'Noto Sans';fill:#f9f9f9"
         d="m 210.69844,52.268054 -3.44,-8.84 h -11.32 l -3.4,8.84 h -3.64 l 11.16,-28.68 h 3.24 l 11.12,28.68 z m -4.52,-12.04 -3.2,-8.64 q -0.12,-0.32 -0.4,-1.16 -0.28,-0.84 -0.56,-1.72 -0.24,-0.92 -0.4,-1.4 -0.32,1.24 -0.68,2.44 -0.32,1.16 -0.56,1.84 l -3.24,8.64 z" />
      <path
         id="path231"
         style="font-style:normal;font-variant:normal;font-weight:normal;font-stretch:normal;font-family:'Noto Sans';-inkscape-font-specification:'Noto Sans';fill:#f9f9f9"
         d="m 236.88281,23.708054 -10.2,28.56 h -3.6 l -10.2,-28.56 h 3.76 l 6.44,18.32 q 0.64,1.76 1.04,3.32 0.44,1.52 0.76,2.92 0.28,-1.4 0.72,-2.96 0.44,-1.56 1.08,-3.36 l 6.4,-18.24 z" />
      <path
         id="path233"
         style="font-style:normal;font-variant:normal;font-weight:normal;font-stretch:normal;font-family:'Noto Sans';-inkscape-font-specification:'Noto Sans';fill:#f9f9f9"
         d="m 257.10469,52.268054 -3.44,-8.84 h -11.32 l -3.4,8.84 h -3.64 l 11.16,-28.68 h 3.24 l 11.12,28.68 z m -4.52,-12.04 -3.2,-8.64 q -0.12,-0.32 -0.4,-1.16 -0.28,-0.84 -0.56,-1.72 -0.24,-0.92 -0.4,-1.4 -0.32,1.24 -0.68,2.44 -0.32,1.16 -0.56,1.84 l -3.24,8.64 z" />
      <path
         id="path235"
         style="font-style:normal;font-variant:normal;font-weight:normal;font-stretch:normal;font-family:'Noto Sans';-inkscape-font-specification:'Noto Sans';fill:#f9f9f9"
         d="m 272.77156,52.268054 h -10.32 v -2.08 l 3.36,-0.76 v -22.84 l -3.36,-0.8 v -2.08 h 10.32 v 2.08 l -3.36,0.8 v 22.84 l 3.36,0.76 z" />
      <path
         id="path237"
         style="font-style:normal;font-variant:normal;font-weight:normal;font-stretch:normal;font-family:'Noto Sans';-inkscape-font-specification:'Noto Sans';fill:#f9f9f9"
         d="m 278.32531,52.268054 v -28.56 h 3.6 v 25.36 h 12.48 v 3.2 z" />
      <path
         id="path239"
         style="font-style:normal;font-variant:normal;font-weight:normal;font-stretch:normal;font-family:'Noto Sans';-inkscape-font-specification:'Noto Sans';fill:#f9f9f9"
         d="m 317.18281,52.268054 -3.44,-8.84 h -11.32 l -3.4,8.84 h -3.64 l 11.16,-28.68 h 3.24 l 11.12,28.68 z m -4.52,-12.04 -3.2,-8.64 q -0.12,-0.32 -0.4,-1.16 -0.28,-0.84 -0.56,-1.72 -0.24,-0.92 -0.4,-1.4 -0.32,1.24 -0.68,2.44 -0.32,1.16 -0.56,1.84 l -3.24,8.64 z" />
      <path
         id="path241"
         style="font-style:normal;font-variant:normal;font-weight:normal;font-stretch:normal;font-family:'Noto Sans';-inkscape-font-specification:'Noto Sans';fill:#f9f9f9"
         d="m 324.80969,23.708054 h 8.16 q 5.32,0 8.08,1.6 2.76,1.6 2.76,5.48 0,2.52 -1.4,4.2 -1.4,1.64 -4.04,2.12 v 0.2 q 1.8,0.32 3.24,1.08 1.48,0.76 2.32,2.16 0.84,1.4 0.84,3.6 0,3.88 -2.68,6 -2.64,2.12 -7.24,2.12 h -10.04 z m 3.6,12.16 h 5.28 q 3.64,0 5,-1.16 1.4,-1.2 1.4,-3.52 0,-2.36 -1.68,-3.36 -1.64,-1.04 -5.28,-1.04 h -4.72 z m 0,3 v 10.36 h 5.76 q 3.8,0 5.28,-1.48 1.48,-1.48 1.48,-3.88 0,-2.24 -1.56,-3.6 -1.52,-1.4 -5.48,-1.4 z" />
      <path
         id="path243"
         style="font-style:normal;font-variant:normal;font-weight:normal;font-stretch:normal;font-family:'Noto Sans';-inkscape-font-specification:'Noto Sans';fill:#f9f9f9"
         d="m 350.82531,52.268054 v -28.56 h 3.6 v 25.36 h 12.48 v 3.2 z" />
      <path
         id="path245"
         style="font-style:normal;font-variant:normal;font-weight:normal;font-stretch:normal;font-family:'Noto Sans';-inkscape-font-specification:'Noto Sans';fill:#f9f9f9"
         d="m 387.72281,52.268054 h -15.96 v -28.56 h 15.96 v 3.16 h -12.36 v 8.92 h 11.64 v 3.12 h -11.64 v 10.2 h 12.36 z" />
      <path
         id="path247"
         style="font-style:normal;font-variant:normal;font-weight:normal;font-stretch:normal;font-family:'Noto Sans';-inkscape-font-specification:'Noto Sans';fill:#f9f9f9"
         d="m 429.33906,37.948054 q 0,4.44 -1.52,7.76 -1.48,3.28 -4.44,5.12 -2.92,1.84 -7.2,1.84 -4.44,0 -7.4,-1.84 -2.92,-1.84 -4.36,-5.16 -1.44,-3.32 -1.44,-7.76 0,-4.36 1.44,-7.64 1.44,-3.32 4.36,-5.16 2.96,-1.84 7.44,-1.84 4.28,0 7.2,1.84 2.92,1.8 4.4,5.12 1.52,3.28 1.52,7.72 z m -22.56,0 q 0,5.4 2.28,8.52 2.28,3.08 7.12,3.08 4.84,0 7.08,-3.08 2.28,-3.12 2.28,-8.52 0,-5.4 -2.24,-8.44 -2.24,-3.08 -7.08,-3.08 -4.88,0 -7.16,3.08 -2.28,3.04 -2.28,8.44 z" />
      <path
         id="path249"
         style="font-style:normal;font-variant:normal;font-weight:normal;font-stretch:normal;font-family:'Noto Sans';-inkscape-font-specification:'Noto Sans';fill:#f9f9f9"
         d="m 458.30906,52.268054 h -4.2 l -15.28,-23.72 h -0.16 q 0.08,1.4 0.2,3.48 0.12,2.08 0.12,4.28 v 15.96 h -3.32 v -28.56 h 4.16 l 15.24,23.64 h 0.16 q -0.04,-0.64 -0.12,-1.92 -0.04,-1.28 -0.12,-2.76 -0.04,-1.52 -0.04,-2.84 v -16.12 h 3.36 z" />
    </g>
  </g>
  <style
     type="text/css"
     id="style11">
	.st0{fill:#FFFFFF;}
</style>
</svg>
