<?xml version="1.0" encoding="UTF-8" standalone="no"?>
<svg
   xmlns:dc="http://purl.org/dc/elements/1.1/"
   xmlns:cc="http://creativecommons.org/ns#"
   xmlns:rdf="http://www.w3.org/1999/02/22-rdf-syntax-ns#"
   xmlns:svg="http://www.w3.org/2000/svg"
   xmlns="http://www.w3.org/2000/svg"
   id="svg8"
   version="1.1"
   viewBox="0 0 101.07087 15.875003"
   height="60"
   width="382">
  <defs
     id="defs2">
    <clipPath
       id="clip0">
      <rect
         style="fill:#ffffff"
         y="0"
         x="0"
         width="341"
         height="32"
         id="rect46" />
    </clipPath>
  </defs>
  <g
     id="layer5">
    <rect
       ry="0.7789731"
       y="0.38343623"
       x="0.38343602"
       height="15.108128"
       width="100.30396"
       id="rect54"
       style="fill:#2b2b2b;fill-opacity:1;stroke:#3c3c3c;stroke-width:0.76687205;stroke-miterlimit:4;stroke-dasharray:none;stroke-opacity:1" />
  </g>
  <g
     style="display:inline"
     transform="translate(0,-281.12493)"
     id="layer2">
    <path
       style="fill:#ffffff;stroke-width:0.39379784"
       class="st0"
       d="m 6.5665795,284.66171 0.2756608,1.18139 c -1.3782894,0 -4.7255736,0 -4.7255736,0 0,0 0.078735,0.35443 0.1181764,0.3938 0.1181765,0.19692 0.2362787,0.4332 0.3937929,0.59071 0.7482183,0.86636 2.0477439,1.22078 3.1110054,1.41767 0.7482184,0.15753 1.4964217,0.19691 2.2446398,0.23629 l 0.8663649,2.32342 h 0.4725571 l 0.2756458,0.74822 H 9.2050561 L 8.535603,293.7191 h 6.576424 l -0.669454,-2.16589 h -0.393794 l 0.275647,-0.74822 h 0.472557 c 0,0 0.393808,-2.40218 1.614583,-3.50482 C 17.59296,286.19753 19.05,286.03999 19.05,286.03999 v -1.37828 z m 6.6158065,5.94635 c -0.31503,0.19691 -0.669456,0.19691 -0.905735,0.35441 -0.157514,0.0787 -0.236278,0.31506 -0.236278,0.31506 -0.157514,-0.35443 -0.354411,-0.47257 -0.59069,-0.55133 -0.23628,-0.0787 -0.669469,-0.0393 -1.26016,-0.55131 -0.393792,-0.35444 -0.433174,-0.82699 -0.393792,-1.06327 v -0.0394 c 0,-0.0394 0,-0.0394 0,-0.0787 0,-0.0394 0,-0.0787 0.03944,-0.11813 v 0 0 c 0.07873,-0.23628 0.27566,-0.47255 0.66947,-0.63007 0,0 -0.275663,0.39379 0,0.78759 0.157514,0.23628 0.472557,0.35442 0.748203,0.1969 0.118176,-0.0787 0.196912,-0.23628 0.236279,-0.35442 0.07873,-0.27566 0.07873,-0.55131 -0.157515,-0.74822 -0.35441,-0.31502 -0.433174,-0.7482 -0.196896,-1.02387 0,0 0.07874,0.35441 0.433175,0.31503 0.236279,0 0.236279,-0.0787 0.157513,-0.15751 -0.03945,-0.11814 -0.551306,-0.86635 0.196912,-1.41768 0,0 0.472558,-0.31504 1.023866,-0.27566 -0.315029,0.0394 -0.669455,0.23628 -0.787587,0.55132 0,0 0,0 0,0.0395 -0.11818,0.31503 -0.03944,0.66945 0.196896,0.98451 0.157514,0.23626 0.354411,0.43317 0.433177,0.74819 -0.118182,-0.0394 -0.196897,0 -0.275663,0.0787 -0.07874,0.0787 -0.118181,0.23627 -0.07874,0.35443 0.03945,0.0787 0.118181,0.15751 0.19691,0.15751 0.03945,0 0.03945,0 0.07874,0 h 0.03944 c 0.118182,-0.0394 0.196899,-0.1969 0.157518,-0.31504 0.07874,0.0787 0.11818,0.27566 0.07874,0.39381 0,0.11812 -0.07874,0.23628 -0.118181,0.31502 -0.03944,0.0787 -0.118181,0.15753 -0.15753,0.23628 -0.03945,0.0787 -0.07874,0.15753 -0.07874,0.23627 0,0.0787 0,0.1969 0.03944,0.27566 0.15753,0.23628 0.472559,0 0.551323,-0.19689 0.118182,-0.23628 0.07874,-0.51194 -0.07874,-0.74822 0,0 0.275661,0.15752 0.472556,0.70883 0.15753,0.47256 -0.118181,1.02389 -0.433175,1.22078 z"
       id="path13" />
    <g
       transform="matrix(0.22806806,0,0,0.22806806,20.559077,287.70675)"
       id="g70"
       style="fill:none">
      <g
         clip-path="url(#clip0)"
         id="g44">
        <path
           style="fill:#f16436"
           d="m 324.854,15.4195 v 7.7609 c 0,1.1497 0.144,1.8683 0.287,2.1557 0.144,0.2875 0.862,0.2875 1.867,0.2875 0.144,0 0.431,0 0.861,0 0.431,0 1.005,0 1.58,0 0.574,0 1.005,0 1.436,0 h 0.717 c 0.862,0 1.58,0 2.154,-0.1437 0.574,-0.1438 1.005,-0.2875 1.436,-0.5749 0.431,-0.2874 0.861,-0.7186 1.149,-1.1498 0.43,-0.4311 0.717,-1.006 1.292,-1.7246 l 1.723,-0.1437 c -0.431,0.8623 -0.862,1.5809 -1.149,2.2995 -0.287,0.7186 -0.431,1.4372 -0.574,2.1558 -0.144,0.7186 -0.287,1.2934 -0.431,1.8683 -0.144,0.5749 -0.144,1.0061 -0.287,1.4372 -0.144,0 -0.574,0 -1.292,0 -0.718,0 -1.723,0 -2.872,-0.1437 -1.149,0 -2.297,0 -3.159,0 h -10.624 c -0.575,0 -1.293,0 -1.867,0.1437 -0.574,0 -1.436,0.1437 -2.584,0.2875 h -0.862 v -1.581 c 0.144,0 0.287,0 0.431,0 0.143,0 0.287,0 0.287,0 1.579,-0.1437 2.584,-0.4311 3.015,-1.006 0.431,-0.5749 0.575,-1.4372 0.575,-2.7306 V 5.9341 c 0,-1.29347 -0.144,-2.15579 -0.575,-2.73066 -0.431,-0.57488 -1.436,-0.86232 -3.015,-1.00603 -0.144,0 -0.287,0 -0.287,0 -0.144,0 -0.287,0 -0.431,0 V 0.472778 l 0.862,0.143719 c 1.148,0.143719 2.01,0.143719 2.584,0.287438 0.574,0 1.149,0 1.867,0 h 17.947 l 1.005,7.042225 h -1.436 c -0.143,-0.71859 -0.431,-1.29347 -0.574,-1.72463 -0.144,-0.43115 -0.431,-0.71859 -0.718,-1.00603 -0.287,-0.28744 -0.574,-0.43115 -1.005,-0.43115 -0.431,0 -1.005,-0.14372 -1.723,-0.14372 l -7.61,-0.14372 v 7.47339 h 5.169 c 0.431,0 0.862,-0.2874 1.149,-0.7186 0.287,-0.4312 0.574,-0.8623 0.718,-1.29347 h 0.574 c 0.718,1.72467 1.866,2.87437 3.589,3.59297 v 0.5749 c -1.723,0.7186 -2.871,1.8683 -3.589,3.5929 h -0.574 c -0.144,-0.4311 -0.431,-0.8623 -0.718,-1.2934 -0.287,-0.4312 -0.718,-0.7186 -1.149,-0.7186 h -5.169 z"
           id="path24" />
        <path
           style="fill:#f16436"
           d="m 263.69,15.4195 c 0.861,1.1498 1.723,2.4433 2.584,3.7367 0.862,1.2935 1.723,2.587 2.441,3.7367 0.718,1.1498 1.436,2.1558 1.867,2.8744 0.574,0.8623 0.861,1.2935 1.005,1.4372 0.143,0.2874 0.431,0.7186 0.718,1.1497 0.287,0.4312 0.574,0.8624 0.861,1.2935 0.287,0.4312 0.431,0.7186 0.574,1.006 0.144,0.2875 0.144,0.4312 0,0.5749 -0.287,0.2875 -0.717,0.2875 -1.292,0.1437 -0.574,-0.2874 -1.436,-0.8623 -2.584,-1.8683 L 256.367,17.4316 c -1.148,-0.1437 -2.153,-0.1437 -3.015,-0.2874 v 7.3296 c 0,1.2935 0.144,2.1558 0.575,2.7307 0.43,0.5749 1.435,0.8623 3.015,1.1497 0.287,0 0.431,0 0.718,0 l 0.143,1.4372 h -0.861 c -1.149,-0.1437 -2.01,-0.1437 -2.585,-0.2874 -0.574,0 -1.148,-0.1437 -1.866,-0.1437 h -5.025 c -0.575,0 -1.293,0 -1.867,0.1437 -0.574,0 -1.436,0.1437 -2.584,0.2874 h -1.005 v -1.4372 c 0.287,0 0.574,0 0.718,0 1.579,-0.1437 2.584,-0.5748 3.015,-1.1497 0.43,-0.5749 0.574,-1.4372 0.574,-2.7307 V 5.79038 c 0,-1.29347 -0.144,-2.15579 -0.574,-2.73066 -0.431,-0.57488 -1.436,-0.86231 -3.015,-1.14975 -0.144,0 -0.431,0 -0.718,0 V 0.472778 l 1.005,0.143719 c 1.148,0.143719 2.01,0.143719 2.584,0.287438 0.574,0 1.005,0 1.292,0 0.287,0 0.862,0 1.867,0 0.861,0 1.866,0 3.159,0 1.148,0 2.297,0 3.589,0 1.149,0 2.154,0 2.728,0 3.302,0 5.887,0.718595 7.753,2.155785 1.867,1.43719 2.728,3.16181 2.728,5.17388 0,1.58091 -0.431,3.1618 -1.292,4.4553 -0.861,1.2935 -2.441,2.012 -3.733,2.7306 z m -8.184,-0.4311 c 1.579,0 2.872,-0.5749 4.02,-1.5809 1.149,-1.0061 1.723,-2.587 1.723,-4.45531 0,-1.43718 -0.431,-2.58694 -1.292,-3.73669 -0.862,-1.14975 -2.154,-1.72462 -4.02,-1.72462 -0.862,0 -1.58,0 -2.01,0.28743 -0.575,0.14372 -0.718,0.57488 -0.718,1.29347 v 9.77292 c 1.148,0.1437 1.866,0.1437 2.297,0.1437 z"
           id="path26" />
        <path
           style="fill:#f16436"
           d="m 185.296,27.2045 c 0.431,0.5749 1.436,0.8623 3.015,1.1497 0.287,0 0.431,0 0.718,0 l 0.144,1.581 h -0.862 c -1.148,-0.1438 -2.01,-0.1438 -2.584,-0.2875 -0.575,0 -1.149,-0.1437 -1.867,-0.1437 h -5.025 c -0.574,0 -1.292,0 -1.867,0.1437 -0.574,0 -1.435,0.1437 -2.584,0.2875 h -1.005 v -1.581 c 0.287,0 0.574,0 0.718,0 1.579,-0.1437 2.584,-0.5748 3.015,-1.1497 0.431,-0.5749 0.574,-1.4372 0.574,-2.7307 V 5.9341 c 0,-1.29347 -0.143,-2.15579 -0.574,-2.73066 -0.431,-0.57488 -1.436,-0.86232 -3.015,-1.00603 -0.144,0 -0.287,0 -0.287,0 -0.144,0 -0.287,0 -0.431,0 V 0.472778 l 0.861,0.143719 c 1.149,0.143719 2.011,0.143719 2.585,0.287438 0.574,0 1.149,0 1.866,0 h 17.948 l 1.005,7.042225 h -1.436 c -0.144,-0.71859 -0.431,-1.29347 -0.574,-1.72463 -0.144,-0.43115 -0.431,-0.71859 -0.718,-1.00603 -0.287,-0.28744 -0.575,-0.43115 -1.005,-0.43115 -0.431,0 -1.005,-0.14372 -1.723,-0.14372 l -7.61,-0.14372 v 7.47339 h 5.169 c 0.431,0 0.861,-0.2874 1.149,-0.7186 0.287,-0.4312 0.574,-0.8623 0.718,-1.29347 h 0.574 c 0.718,1.72467 1.866,2.87437 3.589,3.59297 v 0.5749 c -1.723,0.7186 -2.871,1.8683 -3.589,3.5929 h -0.574 c -0.144,-0.4311 -0.431,-0.8623 -0.718,-1.2934 -0.288,-0.4312 -0.718,-0.7186 -1.149,-0.7186 h -5.169 v 8.9106 c 0.144,1.1497 0.431,2.012 0.718,2.5869 z"
           id="path28" />
        <path
           style="fill:#f16436"
           d="m 292.98,30.5101 c -2.297,0 -4.595,-0.4312 -6.605,-1.1498 -2.01,-0.7186 -3.876,-1.7246 -5.456,-3.0181 -1.579,-1.2935 -2.728,-2.8744 -3.589,-4.7427 -0.862,-1.8683 -1.292,-3.8804 -1.292,-6.1799 0,-2.1558 0.43,-4.1679 1.292,-6.03621 0.861,-1.86835 2.01,-3.59297 3.589,-5.03016 1.58,-1.43719 3.303,-2.58694 5.456,-3.449256 2.154,-0.8623132 4.308,-1.29347 6.748,-1.29347 1.436,0 2.872,0.143719 4.021,0.4311569 1.148,0.2874381 2.153,0.5748751 3.158,0.8623131 0.862,0.287436 1.723,0.574876 2.441,0.718596 0.718,0.14372 1.292,0.14372 1.723,-0.28744 l 0.431,8.19198 h -1.292 c -0.144,-1.00603 -0.575,-1.86835 -1.293,-2.58694 -0.717,-0.7186 -1.435,-1.43719 -2.297,-2.01207 -0.861,-0.57487 -1.866,-1.00603 -2.871,-1.29347 -1.005,-0.28743 -2.01,-0.43115 -3.159,-0.43115 -1.579,0 -3.015,0.28743 -4.307,1.00603 -1.293,0.71859 -2.441,1.58091 -3.303,2.58694 -0.861,1.14975 -1.579,2.2995 -2.01,3.88045 -0.431,1.4371 -0.718,3.0181 -0.574,4.599 0.143,1.7246 0.431,3.1618 1.149,4.599 0.574,1.4372 1.435,2.5869 2.44,3.5929 1.005,1.0061 2.154,1.7247 3.59,2.2995 1.292,0.5749 2.728,0.8624 4.164,0.8624 1.148,0 2.297,-0.1438 3.445,-0.4312 v -4.8864 c 0,-1.2935 -0.143,-2.1558 -0.574,-2.7307 -0.431,-0.5749 -1.436,-0.8623 -3.015,-1.1498 -0.287,0 -0.431,0 -0.718,0 v -1.4371 h 0.862 c 1.148,0.1437 2.01,0.1437 2.584,0.2874 0.574,0 1.149,0.1437 1.867,0.1437 h 5.025 c 0.574,0 1.292,0 1.866,-0.1437 0.575,-0.1437 1.436,-0.1437 2.585,-0.2874 h 1.005 v 1.4371 c -0.287,0 -0.575,0 -0.718,0 -1.58,0.1438 -2.585,0.5749 -3.015,1.1498 -0.431,0.5749 -0.575,1.4372 -0.575,2.7307 0,4.0241 -0.287,6.3236 -1.005,6.611 -0.718,0.2875 -1.579,0.5749 -2.728,1.0061 -1.148,0.4311 -2.44,0.7186 -3.876,1.006 -1.867,0.4311 -3.446,0.5749 -5.169,0.5749 z"
           id="path30" />
        <path
           style="fill:#f16436"
           d="m 236.266,14.701 c 0,2.1558 -0.43,4.1678 -1.292,6.0362 -0.861,1.8683 -2.01,3.593 -3.446,5.0301 -1.435,1.4372 -3.302,2.587 -5.312,3.4493 -2.01,0.8623 -4.307,1.2935 -6.748,1.2935 -2.297,0 -4.595,-0.4312 -6.605,-1.1498 -2.01,-0.7186 -3.876,-1.7246 -5.456,-3.0181 -1.579,-1.2935 -2.728,-2.8744 -3.589,-4.7427 -0.862,-1.8683 -1.292,-3.8804 -1.292,-6.1799 0,-2.1558 0.43,-4.1679 1.292,-6.03621 0.861,-1.86835 2.01,-3.59297 3.589,-5.03016 1.58,-1.43719 3.302,-2.58694 5.456,-3.449256 2.154,-0.8623132 4.308,-1.29347 6.748,-1.29347 2.298,0 4.595,0.287438 6.605,1.006032 2.01,0.718594 3.877,1.724624 5.312,3.018094 1.58,1.29347 2.728,2.87438 3.59,4.74273 0.718,2.01204 1.148,4.02414 1.148,6.32364 z m -7.178,0.4311 c -0.144,-1.5809 -0.431,-3.0181 -1.006,-4.3115 -0.574,-1.29349 -1.292,-2.58696 -2.297,-3.59299 -1.005,-1.00604 -2.01,-1.86835 -3.302,-2.44323 -1.292,-0.57487 -2.584,-0.71859 -4.164,-0.71859 -1.436,0 -2.728,0.28744 -3.876,0.86231 -1.149,0.57488 -2.011,1.43719 -2.872,2.44323 -0.718,1.00603 -1.292,2.15578 -1.723,3.59297 -0.431,1.4372 -0.431,2.7307 -0.287,4.3116 0.143,1.5809 0.574,3.0181 1.148,4.3115 0.575,1.2935 1.293,2.587 2.298,3.593 1.005,1.006 2.01,1.8683 3.302,2.4432 1.292,0.5749 2.584,0.8623 4.164,0.8623 1.436,0 2.728,-0.2874 3.876,-0.8623 1.149,-0.5749 2.011,-1.4372 2.872,-2.4432 0.718,-1.006 1.292,-2.1558 1.723,-3.593 0.144,-1.4372 0.287,-2.8743 0.144,-4.4553 z m -9.333,4.599 h -0.718 c -0.861,-2.012 -2.441,-3.4492 -4.451,-4.3115 V 14.701 c 2.01,-0.8623 3.446,-2.4432 4.451,-4.4553 h 0.718 c 0.861,2.0121 2.297,3.4493 4.307,4.4553 v 0.7186 c -2.01,0.8623 -3.446,2.2995 -4.307,4.3115 z"
           id="path32" />
        <path
           style="fill:#ffffff"
           d="m 151.986,15.4196 v 7.7608 c 0,1.1498 0.143,1.8684 0.287,2.1558 0.143,0.2874 0.861,0.2874 1.866,0.2874 0.144,0 0.431,0 0.862,0 0.431,0 1.005,0 1.579,0 0.575,0 1.005,0 1.436,0 h 0.718 c 0.861,0 1.579,0 2.154,-0.1437 0.574,-0.1437 1.005,-0.2874 1.435,-0.5748 0.431,-0.2875 0.862,-0.7186 1.149,-1.1498 0.431,-0.4312 0.718,-1.006 1.292,-1.7246 l 1.723,-0.1437 c -0.431,0.8623 -0.861,1.5809 -1.149,2.2995 -0.287,0.7186 -0.43,1.4371 -0.574,2.1557 -0.143,0.7186 -0.287,1.2935 -0.431,1.8684 -0.143,0.5749 -0.143,1.006 -0.287,1.4372 -0.143,0 -0.574,0 -1.292,0 -0.718,0 -1.723,0 -2.871,-0.1437 -1.149,0 -2.298,0 -3.159,0 h -10.625 c -0.574,0 -1.292,0 -1.867,0.1437 -0.574,0 -1.435,0.1437 -2.584,0.2874 h -0.861 v -1.5809 c 0.143,0 0.287,0 0.43,0 0.144,0 0.287,0 0.287,0 1.58,-0.1437 2.585,-0.4312 3.016,-1.006 0.43,-0.5749 0.574,-1.4372 0.574,-2.7307 V 5.93416 c 0,-1.29347 -0.144,-2.15579 -0.574,-2.73066 -0.431,-0.57488 -1.436,-0.86231 -3.016,-1.00603 -0.143,0 -0.287,0 -0.287,0 -0.143,0 -0.287,0 -0.43,0 V 0.472839 l 0.861,0.143719 c 1.149,0.143719 2.01,0.143719 2.584,0.287438 0.575,0 1.149,0 1.867,0 h 17.947 l 1.005,7.042224 h -1.435 C 163.472,7.22763 163.185,6.65275 163.041,6.2216 162.898,5.79044 162.61,5.503 162.323,5.21556 c -0.287,-0.28743 -0.574,-0.43115 -1.005,-0.43115 -0.43,0 -1.005,-0.14372 -1.723,-0.14372 l -7.609,-0.14372 v 7.47343 h 5.169 c 0.43,0 0.861,-0.2875 1.148,-0.7186 0.287,-0.4312 0.574,-0.8624 0.718,-1.29351 h 0.574 c 0.718,1.72461 1.867,2.87441 3.59,3.59301 v 0.5748 c -1.723,0.7186 -2.872,1.8684 -3.59,3.593 h -0.43 c -0.144,-0.4311 -0.431,-0.8623 -0.718,-1.2935 -0.287,-0.4311 -0.718,-0.7186 -1.149,-0.7186 h -5.312 z"
           id="path34" />
        <path
           style="fill:#ffffff"
           d="m 101.302,15.4196 c 0.862,1.1498 1.723,2.4432 2.585,3.7367 0.861,1.2935 1.723,2.5869 2.441,3.7367 0.718,1.1497 1.436,2.1558 1.866,2.8744 0.575,0.8623 0.862,1.2934 1.005,1.4372 0.144,0.2874 0.431,0.7186 0.718,1.1497 0.287,0.4312 0.575,0.8623 0.862,1.2935 0.287,0.4311 0.43,0.7186 0.574,1.006 0.144,0.2874 0.144,0.4312 0,0.5749 -0.287,0.2874 -0.718,0.2874 -1.292,0.1437 -0.575,-0.2874 -1.436,-0.8623 -2.585,-1.8683 L 93.98,17.4317 C 92.8314,17.288 91.8263,17.288 90.9648,17.1442 v 7.3297 c 0,1.2935 0.1436,2.1558 0.5744,2.7307 0.4307,0.5748 1.4357,0.8623 3.0151,1.1497 0.2872,0 0.4307,0 0.7179,0 l 0.1436,1.4372 h -0.8615 c -1.1486,-0.1437 -2.0101,-0.1437 -2.5844,-0.2874 -0.5743,0 -1.1486,-0.1438 -1.8665,-0.1438 h -5.0253 c -0.5743,0 -1.2922,0 -1.8665,0.1438 -0.5743,0 -1.4358,0.1437 -2.5844,0.2874 h -1.0051 v -1.4372 c 0.2872,0 0.5743,0 0.7179,0 1.5794,-0.1437 2.5844,-0.5749 3.0152,-1.1497 0.4307,-0.5749 0.5743,-1.4372 0.5743,-2.7307 V 5.79044 c 0,-1.29347 -0.1436,-2.15578 -0.5743,-2.73066 C 82.9244,2.4849 81.9194,2.19747 80.34,1.91003 c -0.1436,0 -0.4307,0 -0.7179,0 V 0.472839 l 1.0051,0.143719 c 1.1486,0.143719 2.0101,0.143719 2.5844,0.287438 0.5743,0 1.005,0 1.2922,0 0.2872,0 0.8615,0 1.8665,0 0.8615,0 1.8665,0 3.1588,0 1.1486,0 2.2972,0 3.5894,0 1.1486,0 2.1537,0 2.728,0 3.3023,0 5.8865,0.718594 7.7535,2.155784 1.866,1.43719 2.728,3.16182 2.728,5.17388 0,1.58091 -0.431,3.16184 -1.292,4.45524 -0.862,1.2935 -2.441,2.0121 -3.734,2.7307 z m -8.1835,-0.4311 c 1.5794,0 2.8716,-0.5749 4.0202,-1.581 1.1487,-1.006 1.723,-2.5869 1.723,-4.45524 0,-1.43719 -0.4308,-2.58695 -1.2922,-3.7367 -0.8615,-1.14975 -2.1537,-1.72462 -4.0202,-1.72462 -0.8615,0 -1.5794,0 -2.0101,0.28743 -0.5744,0.14372 -0.7179,0.57488 -0.7179,1.29347 v 9.77286 c 1.1486,0.1437 1.8665,0.1438 2.2972,0.1438 z"
           id="path36" />
        <path
           style="fill:#ffffff"
           d="m 55.7881,28.6417 c -1.5793,0.7186 -3.1587,1.1498 -4.8816,1.1498 -1.2922,0 -2.5844,-0.1437 -3.7331,-0.5749 -1.1486,-0.4311 -2.1537,-1.006 -3.0151,-1.8683 C 43.2968,26.486 42.7225,25.4799 42.1482,24.1865 41.7174,22.893 41.4303,21.3121 41.4303,19.3 V 5.79044 c 0,-1.29347 -0.1436,-2.15579 -0.5743,-2.73066 -0.4308,-0.57488 -1.4358,-0.86231 -3.0152,-1.14975 -0.1436,0 -0.4307,0 -0.7179,0 V 0.472839 l 1.0051,0.143719 c 1.1486,0.143719 2.0101,0.143719 2.5844,0.287438 0.5743,0 1.1486,0 1.8665,0 h 5.0253 c 0.5743,0 1.2922,0 1.8665,0 0.5743,0 1.4358,-0.143719 2.5844,-0.287438 L 52.9166,0.472839 52.773,1.91003 c -0.2872,0 -0.4307,0 -0.7179,0 -1.5794,0.14372 -2.5844,0.57487 -3.0152,1.14975 -0.4307,0.57487 -0.5743,1.43719 -0.5743,2.73066 V 19.3 c 0,2.4432 0.5743,4.1679 1.5794,5.1739 1.005,1.006 2.2973,1.5809 3.733,1.5809 1.1487,0 2.2973,-0.4312 3.4459,-1.1497 1.0051,-0.7186 1.8665,-1.7247 2.5844,-3.0181 V 5.79044 c 0,-1.29347 -0.1435,-2.15579 -0.5743,-2.73066 -0.4307,-0.57488 -1.4358,-0.86231 -3.0151,-1.14975 -0.1436,0 -0.4308,0 -0.7179,0 V 0.472839 l 1.005,0.143719 c 1.1487,0.143719 2.0101,0.143719 2.5844,0.287438 0.5744,0 1.1487,0 1.8666,0 h 5.0252 c 0.5743,0 1.2922,0 1.8665,0 0.5744,0 1.4358,-0.143719 2.5845,-0.287438 l 1.005,-0.143719 -0.1436,1.437191 c -0.2871,0 -0.4307,0 -0.7179,0 -2.0101,0.28744 -3.0151,0.71859 -3.3023,1.14975 -0.4307,0.57487 -0.5743,1.43719 -0.5743,2.73066 V 24.3302 c 0,1.2934 0.1436,2.1558 0.5743,2.7306 0.4308,0.5749 1.4358,0.8623 3.0152,1.1498 0.2871,0 0.4307,0 0.7179,0 l 0.1435,1.5809 h -1.005 c -1.1486,-0.1437 -2.0101,-0.1437 -2.5844,-0.2874 -0.5743,0 -1.1486,-0.1438 -1.8665,-0.1438 h -6.0303 v -3.8804 c -1.0051,1.2935 -2.2973,2.4432 -3.8767,3.1618 z"
           id="path38" />
        <path
           style="fill:#ffffff"
           d="m 30.0876,27.9231 c -0.4308,0.2875 -1.1487,0.7186 -1.8666,1.0061 -0.8614,0.2874 -1.7229,0.5749 -2.7279,0.8623 -1.0051,0.2874 -2.0101,0.4311 -3.0152,0.5749 -1.005,0.1437 -2.0101,0.2874 -2.8716,0.2874 -2.2972,0 -4.5945,-0.4312 -6.6046,-1.1497 C 10.9916,28.7855 9.1251,27.7794 7.54573,26.486 5.96637,25.1925 4.81774,23.6116 3.95627,21.7432 3.0948,19.8749 2.66406,17.8628 2.66406,15.5633 2.66406,13.4075 3.0948,11.3955 3.95627,9.52713 4.81774,7.65878 5.96637,5.93415 7.54573,4.49697 9.1251,3.05978 10.848,1.91003 13.0017,1.04771 c 2.1537,-0.862311 4.3074,-1.293468 6.7482,-1.293468 1.4358,0 2.728,0.143719 3.8766,0.431157 1.0051,0.287437 2.0101,0.574875 2.728,0.862311 0.8615,0.28744 1.4358,0.43116 2.0101,0.57488 0.5743,0.14372 1.1487,0 1.5794,-0.28744 l 0.4307,7.6171 H 29.0825 C 28.5082,6.94019 27.5032,5.64672 25.9238,4.7844 24.3444,3.92209 22.4779,3.49093 20.3242,3.49093 c -1.5793,0 -3.0151,0.28744 -4.3073,1.00604 -1.2922,0.71859 -2.4409,1.5809 -3.3023,2.58694 -0.8615,1.14975 -1.5794,2.2995 -2.0101,3.88039 -0.4308,1.4372 -0.71793,3.0181 -0.5744,4.599 0.1436,1.7246 0.4308,3.1618 1.1487,4.599 0.5743,1.4372 1.4358,2.587 2.4408,3.593 1.0051,1.006 2.1537,1.7246 3.5895,2.2995 1.2922,0.5749 2.728,0.8623 4.1638,0.8623 1.1486,0 2.1536,-0.1437 3.0151,-0.2874 0.8615,-0.1437 1.7229,-0.4312 2.4408,-1.0061 0.7179,-0.4311 1.2922,-1.1497 1.723,-1.8683 0.4307,-0.7186 0.7179,-1.8683 0.8615,-3.1618 h 1.4357 z"
           id="path40" />
        <path
           style="fill:#ffffff"
           d="m 135.331,21.8869 c 0,1.0061 -0.287,2.0121 -0.862,3.0181 -0.574,1.0061 -1.292,1.8684 -2.297,2.7307 -1.005,0.8623 -2.154,1.5809 -3.446,2.0121 -1.292,0.4311 -2.872,0.7186 -4.451,0.7186 -1.866,0 -3.589,-0.2875 -5.025,-0.8623 -1.436,-0.5749 -2.585,-0.8624 -3.302,-1.1498 l -1.293,-7.7608 h 1.58 c 0.574,2.1558 1.292,3.8804 2.441,4.8864 1.148,1.0061 2.584,1.5809 4.594,1.5809 1.723,0 3.015,-0.2874 4.02,-1.1497 1.005,-0.7186 1.436,-1.7246 1.436,-3.1618 0,-1.2935 -0.574,-2.4433 -1.866,-3.4493 -1.149,-1.006 -3.016,-2.1558 -5.456,-3.4492 -1.867,-1.0061 -3.446,-2.2995 -4.595,-3.7367 -1.149,-1.4372 -1.723,-3.01814 -1.723,-4.74276 0,-2.44322 0.862,-4.31157 2.441,-5.74876 1.723,-1.437189 3.877,-2.155783 6.748,-2.155783 0.862,0 1.579,0 2.297,0.287438 0.718,0.143719 1.436,0.2874374 2.01,0.431156 0.718,0.143719 1.293,0.287438 1.867,0.431157 0.574,0.143719 1.292,0.143719 2.154,0.143719 l 1.005,6.611073 h -1.292 c -0.862,-1.86835 -1.867,-3.16182 -3.159,-3.88041 -1.292,-0.7186 -2.441,-1.00604 -3.733,-1.00604 -1.292,0 -2.298,0.28744 -3.015,1.00604 -0.718,0.71859 -1.149,1.5809 -1.149,2.58694 0,0.57487 0.144,1.00603 0.574,1.43719 0.431,0.43115 0.862,0.86231 1.436,1.29347 0.574,0.43115 1.149,0.86231 1.867,1.14975 0.717,0.28742 1.292,0.71862 1.866,1.00602 2.728,1.4372 4.738,3.0181 6.174,4.599 1.436,1.8684 2.154,3.8804 2.154,6.3236 z"
           id="path42" />
      </g>
    </g>
  </g>
  <g
     style="display:inline"
     transform="translate(0,-17.991667)"
     id="layer3">
    <g
       id="flowRoot73"
       fill="white"
       style="font-style:normal;font-variant:normal;font-weight:normal;font-stretch:normal;font-size:40px;line-height:1.25;font-family:'Adobe Ming Std';-inkscape-font-specification:'Adobe Ming Std';letter-spacing:0px;word-spacing:0px;fill:#ffffff;fill-opacity:1;stroke:none"
       transform="matrix(0.09113317,0,0,0.08731273,3.951753,18.079203)"
       aria-label="AVAILABLE ON">
      <path
         id="path89"
         style="font-style:normal;font-variant:normal;font-weight:normal;font-stretch:normal;font-family:'Noto Sans';-inkscape-font-specification:'Noto Sans';fill:#ffffff"
         d="m 210.69844,56.073047 -3.44,-8.84 h -11.32 l -3.4,8.84 h -3.64 l 11.16,-28.68 h 3.24 l 11.12,28.68 z m -4.52,-12.04 -3.2,-8.64 q -0.12,-0.32 -0.4,-1.16 -0.28,-0.84 -0.56,-1.72 -0.24,-0.92 -0.4,-1.4 -0.32,1.24 -0.68,2.44 -0.32,1.16 -0.56,1.84 l -3.24,8.64 z" />
      <path
         id="path91"
         style="font-style:normal;font-variant:normal;font-weight:normal;font-stretch:normal;font-family:'Noto Sans';-inkscape-font-specification:'Noto Sans';fill:#ffffff"
         d="m 236.88281,27.513047 -10.2,28.56 h -3.6 l -10.2,-28.56 h 3.76 l 6.44,18.32 q 0.64,1.76 1.04,3.32 0.44,1.52 0.76,2.92 0.28,-1.4 0.72,-2.96 0.44,-1.56 1.08,-3.36 l 6.4,-18.24 z" />
      <path
         id="path93"
         style="font-style:normal;font-variant:normal;font-weight:normal;font-stretch:normal;font-family:'Noto Sans';-inkscape-font-specification:'Noto Sans';fill:#ffffff"
         d="m 257.10469,56.073047 -3.44,-8.84 h -11.32 l -3.4,8.84 h -3.64 l 11.16,-28.68 h 3.24 l 11.12,28.68 z m -4.52,-12.04 -3.2,-8.64 q -0.12,-0.32 -0.4,-1.16 -0.28,-0.84 -0.56,-1.72 -0.24,-0.92 -0.4,-1.4 -0.32,1.24 -0.68,2.44 -0.32,1.16 -0.56,1.84 l -3.24,8.64 z" />
      <path
         id="path95"
         style="font-style:normal;font-variant:normal;font-weight:normal;font-stretch:normal;font-family:'Noto Sans';-inkscape-font-specification:'Noto Sans';fill:#ffffff"
         d="m 272.77156,56.073047 h -10.32 v -2.08 l 3.36,-0.76 v -22.84 l -3.36,-0.8 v -2.08 h 10.32 v 2.08 l -3.36,0.8 v 22.84 l 3.36,0.76 z" />
      <path
         id="path97"
         style="font-style:normal;font-variant:normal;font-weight:normal;font-stretch:normal;font-family:'Noto Sans';-inkscape-font-specification:'Noto Sans';fill:#ffffff"
         d="m 278.32531,56.073047 v -28.56 h 3.6 v 25.36 h 12.48 v 3.2 z" />
      <path
         id="path99"
         style="font-style:normal;font-variant:normal;font-weight:normal;font-stretch:normal;font-family:'Noto Sans';-inkscape-font-specification:'Noto Sans';fill:#ffffff"
         d="m 317.18281,56.073047 -3.44,-8.84 h -11.32 l -3.4,8.84 h -3.64 l 11.16,-28.68 h 3.24 l 11.12,28.68 z m -4.52,-12.04 -3.2,-8.64 q -0.12,-0.32 -0.4,-1.16 -0.28,-0.84 -0.56,-1.72 -0.24,-0.92 -0.4,-1.4 -0.32,1.24 -0.68,2.44 -0.32,1.16 -0.56,1.84 l -3.24,8.64 z" />
      <path
         id="path101"
         style="font-style:normal;font-variant:normal;font-weight:normal;font-stretch:normal;font-family:'Noto Sans';-inkscape-font-specification:'Noto Sans';fill:#ffffff"
         d="m 324.80969,27.513047 h 8.16 q 5.32,0 8.08,1.6 2.76,1.6 2.76,5.48 0,2.52 -1.4,4.2 -1.4,1.64 -4.04,2.12 v 0.2 q 1.8,0.32 3.24,1.08 1.48,0.76 2.32,2.16 0.84,1.4 0.84,3.6 0,3.88 -2.68,6 -2.64,2.12 -7.24,2.12 h -10.04 z m 3.6,12.16 h 5.28 q 3.64,0 5,-1.16 1.4,-1.2 1.4,-3.52 0,-2.36 -1.68,-3.36 -1.64,-1.04 -5.28,-1.04 h -4.72 z m 0,3 v 10.36 h 5.76 q 3.8,0 5.28,-1.48 1.48,-1.48 1.48,-3.88 0,-2.24 -1.56,-3.6 -1.52,-1.4 -5.48,-1.4 z" />
      <path
         id="path103"
         style="font-style:normal;font-variant:normal;font-weight:normal;font-stretch:normal;font-family:'Noto Sans';-inkscape-font-specification:'Noto Sans';fill:#ffffff"
         d="m 350.82531,56.073047 v -28.56 h 3.6 v 25.36 h 12.48 v 3.2 z" />
      <path
         id="path105"
         style="font-style:normal;font-variant:normal;font-weight:normal;font-stretch:normal;font-family:'Noto Sans';-inkscape-font-specification:'Noto Sans';fill:#ffffff"
         d="m 387.72281,56.073047 h -15.96 v -28.56 h 15.96 v 3.16 h -12.36 v 8.92 h 11.64 v 3.12 h -11.64 v 10.2 h 12.36 z" />
      <path
         id="path107"
         style="font-style:normal;font-variant:normal;font-weight:normal;font-stretch:normal;font-family:'Noto Sans';-inkscape-font-specification:'Noto Sans';fill:#ffffff"
         d="m 429.33906,41.753047 q 0,4.44 -1.52,7.76 -1.48,3.28 -4.44,5.12 -2.92,1.84 -7.2,1.84 -4.44,0 -7.4,-1.84 -2.92,-1.84 -4.36,-5.16 -1.44,-3.32 -1.44,-7.76 0,-4.36 1.44,-7.64 1.44,-3.32 4.36,-5.16 2.96,-1.84 7.44,-1.84 4.28,0 7.2,1.84 2.92,1.8 4.4,5.12 1.52,3.28 1.52,7.72 z m -22.56,0 q 0,5.4 2.28,8.52 2.28,3.08 7.12,3.08 4.84,0 7.08,-3.08 2.28,-3.12 2.28,-8.52 0,-5.4 -2.24,-8.44 -2.24,-3.08 -7.08,-3.08 -4.88,0 -7.16,3.08 -2.28,3.04 -2.28,8.44 z" />
      <path
         id="path109"
         style="font-style:normal;font-variant:normal;font-weight:normal;font-stretch:normal;font-family:'Noto Sans';-inkscape-font-specification:'Noto Sans';fill:#ffffff"
         d="m 458.30906,56.073047 h -4.2 l -15.28,-23.72 h -0.16 q 0.08,1.4 0.2,3.48 0.12,2.08 0.12,4.28 v 15.96 h -3.32 v -28.56 h 4.16 l 15.24,23.64 h 0.16 q -0.04,-0.64 -0.12,-1.92 -0.04,-1.28 -0.12,-2.76 -0.04,-1.52 -0.04,-2.84 v -16.12 h 3.36 z" />
    </g>
  </g>
  <style
     type="text/css"
     id="style11">
	.st0{fill:#FFFFFF;}
</style>
</svg>
